<?xml version="1.0" encoding="UTF-8"?>
<svg xmlns="http://www.w3.org/2000/svg" width="1200" height="880" viewBox="0 0 1200 880" role="img" aria-labelledby="title desc">
  <title id="title">So's lifetime founder operating history</title>
  <desc id="desc">Yearly shipping consistency, deduplicated commit throughput, focused code movement, and collaboration trends from GitHub account creation.</desc>
  <defs>
    <linearGradient id="history-bg" x1="0" y1="0" x2="0" y2="1"><stop stop-color="#FFFFFF"/><stop offset="1" stop-color="#F8FAFB"/></linearGradient>
    <style>
      text { font-family: -apple-system, BlinkMacSystemFont, "Segoe UI", Helvetica, Arial, sans-serif; fill: #181915; }
      .history-eyebrow { font-family: ui-monospace, SFMono-Regular, Menlo, monospace; font-size: 13px; font-weight: 600; letter-spacing: 2.6px; fill: #355F78; }
      .history-title { font-family: Georgia, "Times New Roman", serif; font-size: 40px; font-weight: 700; letter-spacing: -1.2px; }
      .history-subtitle { font-size: 15px; fill: #68757C; }
      .history-label { font-family: ui-monospace, SFMono-Regular, Menlo, monospace; font-size: 11px; font-weight: 600; letter-spacing: 1.2px; fill: #68757C; }
      .history-total { font-size: 22px; font-weight: 750; }
      .history-axis { font-size: 11px; fill: #98A3A9; }
      .headline-number { font-size: 27px; font-weight: 750; }
      .headline-label { font-family: ui-monospace, SFMono-Regular, Menlo, monospace; font-size: 10px; fill: #68757C; letter-spacing: 0.8px; }
      .history-footer { font-size: 12px; fill: #98A3A9; }
    </style>
  </defs>
  <rect x="1" y="1" width="1198" height="878" rx="10" fill="url(#history-bg)" stroke="#DCE3E7" stroke-width="2"/>
  <rect x="28" y="24" width="1144" height="2" fill="#355F78"/>
  <text x="52" y="64" class="history-eyebrow">FOUNDER OPERATING HISTORY</text>
  <text x="52" y="106" class="history-title">Lifetime momentum, year by year</text>
  <text x="52" y="134" class="history-subtitle">2018 → 2026 · every chart has its own scale so the trend stays honest</text>
  <g transform="translate(52 158)"><text class="headline-number">2,435</text><text y="22" class="headline-label">CONTRIBUTIONS</text></g>
  <g transform="translate(287 158)"><text class="headline-number">3M</text><text y="22" class="headline-label">FOCUSED LINES</text></g>
  <g transform="translate(522 158)"><text class="headline-number">2,283</text><text y="22" class="headline-label">UNIQUE COMMITS</text></g>
  <g transform="translate(757 158)"><text class="headline-number">342</text><text y="22" class="headline-label">SHIP DAYS</text></g>
  <g transform="translate(992 158)"><text class="headline-number">10</text><text y="22" class="headline-label">BULK IMPORTS FILTERED</text></g>
  <g>
    <rect x="52" y="220" width="342" height="180" rx="6" fill="#FAFBFC" stroke="#DCE3E7"/>
    <text x="72" y="248" class="history-label">CONTRIBUTIONS</text>
    <text x="374" y="249" text-anchor="end" class="history-total">2,435</text>
    <line x1="74" y1="368.0" x2="372" y2="368.0" stroke="#DCE3E7"/>
    <path d="M 74.0 368.0 L 74.0 367.9 L 111.3 333.2 L 148.5 351.3 L 185.8 364.5 L 223.0 365.3 L 260.3 354.7 L 297.5 366.0 L 334.8 361.6 L 372.0 268.0 L 372.0 368.0 Z" fill="#355F78" opacity="0.08"/>
    <polyline points="74.0,367.9 111.3,333.2 148.5,351.3 185.8,364.5 223.0,365.3 260.3,354.7 297.5,366.0 334.8,361.6 372.0,268.0" fill="none" stroke="#355F78" stroke-width="2" stroke-linecap="square" stroke-linejoin="miter"/>
    <circle cx="74.0" cy="367.9" r="3.5" fill="#355F78"><title>2018: 1</title></circle><circle cx="111.3" cy="333.2" r="3.5" fill="#355F78"><title>2019: 472</title></circle><circle cx="148.5" cy="351.3" r="3.5" fill="#355F78"><title>2020: 227</title></circle><circle cx="185.8" cy="364.5" r="3.5" fill="#355F78"><title>2021: 47</title></circle><circle cx="223.0" cy="365.3" r="3.5" fill="#355F78"><title>2022: 36</title></circle><circle cx="260.3" cy="354.7" r="3.5" fill="#355F78"><title>2023: 181</title></circle><circle cx="297.5" cy="366.0" r="3.5" fill="#355F78"><title>2024: 27</title></circle><circle cx="334.8" cy="361.6" r="3.5" fill="#355F78"><title>2025: 87</title></circle><circle cx="372.0" cy="268.0" r="3.5" fill="#355F78"><title>2026: 1,357</title></circle>
    <text x="74" y="388" class="history-axis">2018</text>
    <text x="372" y="388" text-anchor="end" class="history-axis">2026</text>
  </g>
<g>
    <rect x="418" y="220" width="342" height="180" rx="6" fill="#FAFBFC" stroke="#DCE3E7"/>
    <text x="438" y="248" class="history-label">SHIP DAYS</text>
    <text x="740" y="249" text-anchor="end" class="history-total">342</text>
    <line x1="440" y1="368.0" x2="738" y2="368.0" stroke="#DCE3E7"/>
    <path d="M 440.0 368.0 L 440.0 367.2 L 477.3 315.5 L 514.5 319.7 L 551.8 353.6 L 589.0 362.1 L 626.3 332.4 L 663.5 360.4 L 700.8 343.4 L 738.0 268.0 L 738.0 368.0 Z" fill="#355F78" opacity="0.08"/>
    <polyline points="440.0,367.2 477.3,315.5 514.5,319.7 551.8,353.6 589.0,362.1 626.3,332.4 663.5,360.4 700.8,343.4 738.0,268.0" fill="none" stroke="#355F78" stroke-width="2" stroke-linecap="square" stroke-linejoin="miter"/>
    <circle cx="440.0" cy="367.2" r="3.5" fill="#355F78"><title>2018: 1</title></circle><circle cx="477.3" cy="315.5" r="3.5" fill="#355F78"><title>2019: 62</title></circle><circle cx="514.5" cy="319.7" r="3.5" fill="#355F78"><title>2020: 57</title></circle><circle cx="551.8" cy="353.6" r="3.5" fill="#355F78"><title>2021: 17</title></circle><circle cx="589.0" cy="362.1" r="3.5" fill="#355F78"><title>2022: 7</title></circle><circle cx="626.3" cy="332.4" r="3.5" fill="#355F78"><title>2023: 42</title></circle><circle cx="663.5" cy="360.4" r="3.5" fill="#355F78"><title>2024: 9</title></circle><circle cx="700.8" cy="343.4" r="3.5" fill="#355F78"><title>2025: 29</title></circle><circle cx="738.0" cy="268.0" r="3.5" fill="#355F78"><title>2026: 118</title></circle>
    <text x="440" y="388" class="history-axis">2018</text>
    <text x="738" y="388" text-anchor="end" class="history-axis">2026</text>
  </g>
<g>
    <rect x="784" y="220" width="342" height="180" rx="6" fill="#FAFBFC" stroke="#DCE3E7"/>
    <text x="804" y="248" class="history-label">LONGEST STREAK</text>
    <text x="1106" y="249" text-anchor="end" class="history-total">22</text>
    <line x1="806" y1="368.0" x2="1104" y2="368.0" stroke="#DCE3E7"/>
    <path d="M 806.0 368.0 L 806.0 363.5 L 843.3 295.3 L 880.5 340.7 L 917.8 354.4 L 955.0 358.9 L 992.3 318.0 L 1029.5 358.9 L 1066.8 349.8 L 1104.0 268.0 L 1104.0 368.0 Z" fill="#355F78" opacity="0.08"/>
    <polyline points="806.0,363.5 843.3,295.3 880.5,340.7 917.8,354.4 955.0,358.9 992.3,318.0 1029.5,358.9 1066.8,349.8 1104.0,268.0" fill="none" stroke="#355F78" stroke-width="2" stroke-linecap="square" stroke-linejoin="miter"/>
    <circle cx="806.0" cy="363.5" r="3.5" fill="#355F78"><title>2018: 1</title></circle><circle cx="843.3" cy="295.3" r="3.5" fill="#355F78"><title>2019: 16</title></circle><circle cx="880.5" cy="340.7" r="3.5" fill="#355F78"><title>2020: 6</title></circle><circle cx="917.8" cy="354.4" r="3.5" fill="#355F78"><title>2021: 3</title></circle><circle cx="955.0" cy="358.9" r="3.5" fill="#355F78"><title>2022: 2</title></circle><circle cx="992.3" cy="318.0" r="3.5" fill="#355F78"><title>2023: 11</title></circle><circle cx="1029.5" cy="358.9" r="3.5" fill="#355F78"><title>2024: 2</title></circle><circle cx="1066.8" cy="349.8" r="3.5" fill="#355F78"><title>2025: 4</title></circle><circle cx="1104.0" cy="268.0" r="3.5" fill="#355F78"><title>2026: 22</title></circle>
    <text x="806" y="388" class="history-axis">2018</text>
    <text x="1104" y="388" text-anchor="end" class="history-axis">2026</text>
  </g>
<g>
    <rect x="52" y="425" width="342" height="180" rx="6" fill="#FAFBFC" stroke="#DCE3E7"/>
    <text x="72" y="453" class="history-label">UNIQUE COMMITS</text>
    <text x="374" y="454" text-anchor="end" class="history-total">2,283</text>
    <line x1="74" y1="573.0" x2="372" y2="573.0" stroke="#DCE3E7"/>
    <path d="M 74.0 573.0 L 74.0 573.0 L 111.3 536.2 L 148.5 558.2 L 185.8 569.9 L 223.0 570.9 L 260.3 558.0 L 297.5 571.7 L 334.8 566.6 L 372.0 473.0 L 372.0 573.0 Z" fill="#355F78" opacity="0.08"/>
    <polyline points="74.0,573.0 111.3,536.2 148.5,558.2 185.8,569.9 223.0,570.9 260.3,558.0 297.5,571.7 334.8,566.6 372.0,473.0" fill="none" stroke="#355F78" stroke-width="2" stroke-linecap="square" stroke-linejoin="miter"/>
    <circle cx="74.0" cy="573.0" r="3.5" fill="#355F78"><title>2018: 0</title></circle><circle cx="111.3" cy="536.2" r="3.5" fill="#355F78"><title>2019: 468</title></circle><circle cx="148.5" cy="558.2" r="3.5" fill="#355F78"><title>2020: 188</title></circle><circle cx="185.8" cy="569.9" r="3.5" fill="#355F78"><title>2021: 39</title></circle><circle cx="223.0" cy="570.9" r="3.5" fill="#355F78"><title>2022: 27</title></circle><circle cx="260.3" cy="558.0" r="3.5" fill="#355F78"><title>2023: 191</title></circle><circle cx="297.5" cy="571.7" r="3.5" fill="#355F78"><title>2024: 16</title></circle><circle cx="334.8" cy="566.6" r="3.5" fill="#355F78"><title>2025: 81</title></circle><circle cx="372.0" cy="473.0" r="3.5" fill="#355F78"><title>2026: 1,273</title></circle>
    <text x="74" y="593" class="history-axis">2018</text>
    <text x="372" y="593" text-anchor="end" class="history-axis">2026</text>
  </g>
<g>
    <rect x="418" y="425" width="342" height="180" rx="6" fill="#FAFBFC" stroke="#DCE3E7"/>
    <text x="438" y="453" class="history-label">COMMITS / SHIP DAY</text>
    <text x="740" y="454" text-anchor="end" class="history-total">11.3</text>
    <line x1="440" y1="573.0" x2="738" y2="573.0" stroke="#DCE3E7"/>
    <path d="M 440.0 573.0 L 440.0 573.0 L 477.3 501.3 L 514.5 539.4 L 551.8 543.8 L 589.0 525.2 L 626.3 526.1 L 663.5 549.1 L 700.8 546.5 L 738.0 473.0 L 738.0 573.0 Z" fill="#355F78" opacity="0.08"/>
    <polyline points="440.0,573.0 477.3,501.3 514.5,539.4 551.8,543.8 589.0,525.2 626.3,526.1 663.5,549.1 700.8,546.5 738.0,473.0" fill="none" stroke="#355F78" stroke-width="2" stroke-linecap="square" stroke-linejoin="miter"/>
    <circle cx="440.0" cy="573.0" r="3.5" fill="#355F78"><title>2018: 0</title></circle><circle cx="477.3" cy="501.3" r="3.5" fill="#355F78"><title>2019: 8.1</title></circle><circle cx="514.5" cy="539.4" r="3.5" fill="#355F78"><title>2020: 3.8</title></circle><circle cx="551.8" cy="543.8" r="3.5" fill="#355F78"><title>2021: 3.3</title></circle><circle cx="589.0" cy="525.2" r="3.5" fill="#355F78"><title>2022: 5.4</title></circle><circle cx="626.3" cy="526.1" r="3.5" fill="#355F78"><title>2023: 5.3</title></circle><circle cx="663.5" cy="549.1" r="3.5" fill="#355F78"><title>2024: 2.7</title></circle><circle cx="700.8" cy="546.5" r="3.5" fill="#355F78"><title>2025: 3</title></circle><circle cx="738.0" cy="473.0" r="3.5" fill="#355F78"><title>2026: 11.3</title></circle>
    <text x="440" y="593" class="history-axis">2018</text>
    <text x="738" y="593" text-anchor="end" class="history-axis">2026</text>
  </g>
<g>
    <rect x="784" y="425" width="342" height="180" rx="6" fill="#FAFBFC" stroke="#DCE3E7"/>
    <text x="804" y="453" class="history-label">FOCUSED CODE CHANGED</text>
    <text x="1106" y="454" text-anchor="end" class="history-total">3M</text>
    <line x1="806" y1="573.0" x2="1104" y2="573.0" stroke="#DCE3E7"/>
    <path d="M 806.0 573.0 L 806.0 573.0 L 843.3 544.6 L 880.5 560.6 L 917.8 572.4 L 955.0 571.7 L 992.3 568.9 L 1029.5 570.3 L 1066.8 569.9 L 1104.0 473.0 L 1104.0 573.0 Z" fill="#355F78" opacity="0.08"/>
    <polyline points="806.0,573.0 843.3,544.6 880.5,560.6 917.8,572.4 955.0,571.7 992.3,568.9 1029.5,570.3 1066.8,569.9 1104.0,473.0" fill="none" stroke="#355F78" stroke-width="2" stroke-linecap="square" stroke-linejoin="miter"/>
    <circle cx="806.0" cy="573.0" r="3.5" fill="#355F78"><title>2018: 0</title></circle><circle cx="843.3" cy="544.6" r="3.5" fill="#355F78"><title>2019: 559,370</title></circle><circle cx="880.5" cy="560.6" r="3.5" fill="#355F78"><title>2020: 245,386</title></circle><circle cx="917.8" cy="572.4" r="3.5" fill="#355F78"><title>2021: 12,006</title></circle><circle cx="955.0" cy="571.7" r="3.5" fill="#355F78"><title>2022: 25,508</title></circle><circle cx="992.3" cy="568.9" r="3.5" fill="#355F78"><title>2023: 81,222</title></circle><circle cx="1029.5" cy="570.3" r="3.5" fill="#355F78"><title>2024: 53,529</title></circle><circle cx="1066.8" cy="569.9" r="3.5" fill="#355F78"><title>2025: 60,816</title></circle><circle cx="1104.0" cy="473.0" r="3.5" fill="#355F78"><title>2026: 1,971,970</title></circle>
    <text x="806" y="593" class="history-axis">2018</text>
    <text x="1104" y="593" text-anchor="end" class="history-axis">2026</text>
  </g>
<g>
    <rect x="52" y="630" width="342" height="180" rx="6" fill="#FAFBFC" stroke="#DCE3E7"/>
    <text x="72" y="658" class="history-label">ACTIVE PRODUCTS</text>
    <text x="374" y="659" text-anchor="end" class="history-total">93</text>
    <line x1="74" y1="778.0" x2="372" y2="778.0" stroke="#DCE3E7"/>
    <path d="M 74.0 778.0 L 74.0 778.0 L 111.3 678.0 L 148.5 708.4 L 185.8 747.6 L 223.0 760.6 L 260.3 725.8 L 297.5 760.6 L 334.8 730.2 L 372.0 708.4 L 372.0 778.0 Z" fill="#355F78" opacity="0.08"/>
    <polyline points="74.0,778.0 111.3,678.0 148.5,708.4 185.8,747.6 223.0,760.6 260.3,725.8 297.5,760.6 334.8,730.2 372.0,708.4" fill="none" stroke="#355F78" stroke-width="2" stroke-linecap="square" stroke-linejoin="miter"/>
    <circle cx="74.0" cy="778.0" r="3.5" fill="#355F78"><title>2018: 0</title></circle><circle cx="111.3" cy="678.0" r="3.5" fill="#355F78"><title>2019: 23</title></circle><circle cx="148.5" cy="708.4" r="3.5" fill="#355F78"><title>2020: 16</title></circle><circle cx="185.8" cy="747.6" r="3.5" fill="#355F78"><title>2021: 7</title></circle><circle cx="223.0" cy="760.6" r="3.5" fill="#355F78"><title>2022: 4</title></circle><circle cx="260.3" cy="725.8" r="3.5" fill="#355F78"><title>2023: 12</title></circle><circle cx="297.5" cy="760.6" r="3.5" fill="#355F78"><title>2024: 4</title></circle><circle cx="334.8" cy="730.2" r="3.5" fill="#355F78"><title>2025: 11</title></circle><circle cx="372.0" cy="708.4" r="3.5" fill="#355F78"><title>2026: 16</title></circle>
    <text x="74" y="798" class="history-axis">2018</text>
    <text x="372" y="798" text-anchor="end" class="history-axis">2026</text>
  </g>
<g>
    <rect x="418" y="630" width="342" height="180" rx="6" fill="#FAFBFC" stroke="#DCE3E7"/>
    <text x="438" y="658" class="history-label">BUILD DAYS</text>
    <text x="740" y="659" text-anchor="end" class="history-total">307</text>
    <line x1="440" y1="778.0" x2="738" y2="778.0" stroke="#DCE3E7"/>
    <path d="M 440.0 778.0 L 440.0 778.0 L 477.3 726.7 L 514.5 733.8 L 551.8 767.4 L 589.0 773.6 L 626.3 746.1 L 663.5 772.7 L 700.8 754.1 L 738.0 678.0 L 738.0 778.0 Z" fill="#355F78" opacity="0.08"/>
    <polyline points="440.0,778.0 477.3,726.7 514.5,733.8 551.8,767.4 589.0,773.6 626.3,746.1 663.5,772.7 700.8,754.1 738.0,678.0" fill="none" stroke="#355F78" stroke-width="2" stroke-linecap="square" stroke-linejoin="miter"/>
    <circle cx="440.0" cy="778.0" r="3.5" fill="#355F78"><title>2018: 0</title></circle><circle cx="477.3" cy="726.7" r="3.5" fill="#355F78"><title>2019: 58</title></circle><circle cx="514.5" cy="733.8" r="3.5" fill="#355F78"><title>2020: 50</title></circle><circle cx="551.8" cy="767.4" r="3.5" fill="#355F78"><title>2021: 12</title></circle><circle cx="589.0" cy="773.6" r="3.5" fill="#355F78"><title>2022: 5</title></circle><circle cx="626.3" cy="746.1" r="3.5" fill="#355F78"><title>2023: 36</title></circle><circle cx="663.5" cy="772.7" r="3.5" fill="#355F78"><title>2024: 6</title></circle><circle cx="700.8" cy="754.1" r="3.5" fill="#355F78"><title>2025: 27</title></circle><circle cx="738.0" cy="678.0" r="3.5" fill="#355F78"><title>2026: 113</title></circle>
    <text x="440" y="798" class="history-axis">2018</text>
    <text x="738" y="798" text-anchor="end" class="history-axis">2026</text>
  </g>
<g>
    <rect x="784" y="630" width="342" height="180" rx="6" fill="#FAFBFC" stroke="#DCE3E7"/>
    <text x="804" y="658" class="history-label">COLLABORATION SIGNALS</text>
    <text x="1106" y="659" text-anchor="end" class="history-total">9</text>
    <line x1="806" y1="778.0" x2="1104" y2="778.0" stroke="#DCE3E7"/>
    <path d="M 806.0 778.0 L 806.0 778.0 L 843.3 778.0 L 880.5 778.0 L 917.8 778.0 L 955.0 718.0 L 992.3 678.0 L 1029.5 758.0 L 1066.8 778.0 L 1104.0 778.0 L 1104.0 778.0 Z" fill="#355F78" opacity="0.08"/>
    <polyline points="806.0,778.0 843.3,778.0 880.5,778.0 917.8,778.0 955.0,718.0 992.3,678.0 1029.5,758.0 1066.8,778.0 1104.0,778.0" fill="none" stroke="#355F78" stroke-width="2" stroke-linecap="square" stroke-linejoin="miter"/>
    <circle cx="806.0" cy="778.0" r="3.5" fill="#355F78"><title>2018: 0</title></circle><circle cx="843.3" cy="778.0" r="3.5" fill="#355F78"><title>2019: 0</title></circle><circle cx="880.5" cy="778.0" r="3.5" fill="#355F78"><title>2020: 0</title></circle><circle cx="917.8" cy="778.0" r="3.5" fill="#355F78"><title>2021: 0</title></circle><circle cx="955.0" cy="718.0" r="3.5" fill="#355F78"><title>2022: 3</title></circle><circle cx="992.3" cy="678.0" r="3.5" fill="#355F78"><title>2023: 5</title></circle><circle cx="1029.5" cy="758.0" r="3.5" fill="#355F78"><title>2024: 1</title></circle><circle cx="1066.8" cy="778.0" r="3.5" fill="#355F78"><title>2025: 0</title></circle><circle cx="1104.0" cy="778.0" r="3.5" fill="#355F78"><title>2026: 0</title></circle>
    <text x="806" y="798" class="history-axis">2018</text>
    <text x="1104" y="798" text-anchor="end" class="history-axis">2026</text>
  </g>
  <text x="52" y="852" class="history-footer">Unique authored commits on accessible default branches · 100k+ line imports filtered · aggregate only</text>
</svg>