<?xml version="1.0" encoding="UTF-8"?>
<svg xmlns="http://www.w3.org/2000/svg" width="375" height="990" viewBox="0 0 375 990" role="img" aria-labelledby="title desc">
  <title id="title">So's mobile lifetime founder operating history</title>
  <desc id="desc">Mobile yearly trends for shipping consistency, unique commits, focused code movement, and collaboration.</desc>
  <defs><linearGradient id="mh-bg" x1="0" y1="0" x2="0" y2="1"><stop stop-color="#FFFFFF"/><stop offset="1" stop-color="#F8FAFB"/></linearGradient>
    <style>
      text { font-family: -apple-system, BlinkMacSystemFont, "Segoe UI", Helvetica, Arial, sans-serif; fill: #181915; }
      .mh-eyebrow { font-family: ui-monospace, SFMono-Regular, Menlo, monospace; font-size: 10px; font-weight: 600; letter-spacing: 1.7px; fill: #355F78; }
      .mh-title { font-family: Georgia, "Times New Roman", serif; font-size: 27px; font-weight: 700; letter-spacing: -.7px; }
      .mh-subtitle,.mh-axis,.mh-footer { font-size: 9px; fill: #68757C; }
      .mh-label { font-family: ui-monospace, SFMono-Regular, Menlo, monospace; font-size: 9px; font-weight: 600; letter-spacing: .8px; fill: #68757C; }
      .mh-value { font-size: 18px; font-weight: 750; }
      .mh-head { font-size: 20px; font-weight: 750; }
      .mh-head-label { font-family: ui-monospace, SFMono-Regular, Menlo, monospace; font-size: 8px; fill: #68757C; letter-spacing: .5px; }
    </style>
  </defs>
  <rect x="1" y="1" width="373" height="988" rx="8" fill="url(#mh-bg)" stroke="#DCE3E7" stroke-width="2"/>
  <rect x="16" y="15" width="343" height="2" fill="#355F78"/>
  <text x="20" y="45" class="mh-eyebrow">FOUNDER OPERATING HISTORY</text>
  <text x="20" y="77" class="mh-title">Lifetime momentum</text>
  <text x="20" y="97" class="mh-subtitle">2018 → 2026 · each trend uses its own honest scale</text>
  <g transform="translate(20 122)"><text class="mh-head">2,439</text><text y="18" class="mh-head-label">CONTRIBUTIONS</text></g>
  <g transform="translate(137 122)"><text class="mh-head">3M</text><text y="18" class="mh-head-label">FOCUSED LINES</text></g>
  <g transform="translate(254 122)"><text class="mh-head">2,287</text><text y="18" class="mh-head-label">UNIQUE COMMITS</text></g>
  <g>
    <rect x="20" y="183" width="335" height="76" rx="5" fill="#FAFBFC" stroke="#DCE3E7"/>
    <text x="34" y="211" class="mh-label">CONTRIBUTIONS</text>
    <text x="34" y="238" class="mh-value">2,439</text>
    <line x1="151" y1="243" x2="334" y2="243" stroke="#DCE3E7"/>
    <polyline points="151.0,242.0 173.9,230.2 196.8,236.3 219.6,240.8 242.5,241.1 265.4,237.5 288.3,241.3 311.1,239.8 334.0,208.0" fill="none" stroke="#355F78" stroke-width="2" stroke-linecap="square" stroke-linejoin="miter"/>
    <text x="151" y="255" class="mh-axis">2018</text><text x="334" y="255" text-anchor="end" class="mh-axis">2026</text>
  </g><g>
    <rect x="20" y="269" width="335" height="76" rx="5" fill="#FAFBFC" stroke="#DCE3E7"/>
    <text x="34" y="297" class="mh-label">SHIP DAYS</text>
    <text x="34" y="324" class="mh-value">343</text>
    <line x1="151" y1="329" x2="334" y2="329" stroke="#DCE3E7"/>
    <polyline points="151.0,327.7 173.9,310.3 196.8,311.7 219.6,323.1 242.5,326.0 265.4,316.0 288.3,325.4 311.1,319.7 334.0,294.0" fill="none" stroke="#355F78" stroke-width="2" stroke-linecap="square" stroke-linejoin="miter"/>
    <text x="151" y="341" class="mh-axis">2018</text><text x="334" y="341" text-anchor="end" class="mh-axis">2026</text>
  </g><g>
    <rect x="20" y="355" width="335" height="76" rx="5" fill="#FAFBFC" stroke="#DCE3E7"/>
    <text x="34" y="383" class="mh-label">LONGEST STREAK</text>
    <text x="34" y="410" class="mh-value">22</text>
    <line x1="151" y1="415" x2="334" y2="415" stroke="#DCE3E7"/>
    <polyline points="151.0,412.5 173.9,389.3 196.8,404.7 219.6,409.4 242.5,410.9 265.4,397.0 288.3,410.9 311.1,407.8 334.0,380.0" fill="none" stroke="#355F78" stroke-width="2" stroke-linecap="square" stroke-linejoin="miter"/>
    <text x="151" y="427" class="mh-axis">2018</text><text x="334" y="427" text-anchor="end" class="mh-axis">2026</text>
  </g><g>
    <rect x="20" y="441" width="335" height="76" rx="5" fill="#FAFBFC" stroke="#DCE3E7"/>
    <text x="34" y="469" class="mh-label">UNIQUE COMMITS</text>
    <text x="34" y="496" class="mh-value">2,287</text>
    <line x1="151" y1="501" x2="334" y2="501" stroke="#DCE3E7"/>
    <polyline points="151.0,500.0 173.9,487.5 196.8,495.0 219.6,499.0 242.5,499.3 265.4,494.9 288.3,499.6 311.1,497.8 334.0,466.0" fill="none" stroke="#355F78" stroke-width="2" stroke-linecap="square" stroke-linejoin="miter"/>
    <text x="151" y="513" class="mh-axis">2018</text><text x="334" y="513" text-anchor="end" class="mh-axis">2026</text>
  </g><g>
    <rect x="20" y="527" width="335" height="76" rx="5" fill="#FAFBFC" stroke="#DCE3E7"/>
    <text x="34" y="555" class="mh-label">COMMITS / SHIP DAY</text>
    <text x="34" y="582" class="mh-value">11.2</text>
    <line x1="151" y1="587" x2="334" y2="587" stroke="#DCE3E7"/>
    <polyline points="151.0,586.0 173.9,561.4 196.8,574.5 219.6,576.0 242.5,569.6 265.4,569.9 288.3,577.8 311.1,576.9 334.0,552.0" fill="none" stroke="#355F78" stroke-width="2" stroke-linecap="square" stroke-linejoin="miter"/>
    <text x="151" y="599" class="mh-axis">2018</text><text x="334" y="599" text-anchor="end" class="mh-axis">2026</text>
  </g><g>
    <rect x="20" y="613" width="335" height="76" rx="5" fill="#FAFBFC" stroke="#DCE3E7"/>
    <text x="34" y="641" class="mh-label">FOCUSED CODE</text>
    <text x="34" y="668" class="mh-value">3M</text>
    <line x1="151" y1="673" x2="334" y2="673" stroke="#DCE3E7"/>
    <polyline points="151.0,672.0 173.9,662.4 196.8,667.8 219.6,671.8 242.5,671.6 265.4,670.6 288.3,671.1 311.1,671.0 334.0,638.0" fill="none" stroke="#355F78" stroke-width="2" stroke-linecap="square" stroke-linejoin="miter"/>
    <text x="151" y="685" class="mh-axis">2018</text><text x="334" y="685" text-anchor="end" class="mh-axis">2026</text>
  </g><g>
    <rect x="20" y="699" width="335" height="76" rx="5" fill="#FAFBFC" stroke="#DCE3E7"/>
    <text x="34" y="727" class="mh-label">ACTIVE PRODUCTS</text>
    <text x="34" y="754" class="mh-value">93</text>
    <line x1="151" y1="759" x2="334" y2="759" stroke="#DCE3E7"/>
    <polyline points="151.0,758.0 173.9,724.0 196.8,734.3 219.6,747.7 242.5,752.1 265.4,740.3 288.3,752.1 311.1,741.7 334.0,734.3" fill="none" stroke="#355F78" stroke-width="2" stroke-linecap="square" stroke-linejoin="miter"/>
    <text x="151" y="771" class="mh-axis">2018</text><text x="334" y="771" text-anchor="end" class="mh-axis">2026</text>
  </g><g>
    <rect x="20" y="785" width="335" height="76" rx="5" fill="#FAFBFC" stroke="#DCE3E7"/>
    <text x="34" y="813" class="mh-label">BUILD DAYS</text>
    <text x="34" y="840" class="mh-value">308</text>
    <line x1="151" y1="845" x2="334" y2="845" stroke="#DCE3E7"/>
    <polyline points="151.0,844.0 173.9,826.7 196.8,829.1 219.6,840.4 242.5,842.5 265.4,833.3 288.3,842.2 311.1,835.9 334.0,810.0" fill="none" stroke="#355F78" stroke-width="2" stroke-linecap="square" stroke-linejoin="miter"/>
    <text x="151" y="857" class="mh-axis">2018</text><text x="334" y="857" text-anchor="end" class="mh-axis">2026</text>
  </g><g>
    <rect x="20" y="871" width="335" height="76" rx="5" fill="#FAFBFC" stroke="#DCE3E7"/>
    <text x="34" y="899" class="mh-label">COLLAB SIGNALS</text>
    <text x="34" y="926" class="mh-value">9</text>
    <line x1="151" y1="931" x2="334" y2="931" stroke="#DCE3E7"/>
    <polyline points="151.0,930.0 173.9,930.0 196.8,930.0 219.6,930.0 242.5,909.6 265.4,896.0 288.3,923.2 311.1,930.0 334.0,930.0" fill="none" stroke="#355F78" stroke-width="2" stroke-linecap="square" stroke-linejoin="miter"/>
    <text x="151" y="943" class="mh-axis">2018</text><text x="334" y="943" text-anchor="end" class="mh-axis">2026</text>
  </g>
  <text x="20" y="974" class="mh-footer">100k+ line imports filtered · repository identities are never stored</text>
</svg>